# xmcd
#
# Track frame offsets:
#	150
#	28550
#	72757
#	86557
#	94992
#	109825
#	141722
#
# Disc length: 2221 seconds
#
# Revision: 11
# Processed by: cddbd v1.5.2PL0 Copyright (c) Steve Scherf et al.
# Submitted via: audiograbber 1.83.01
#
DISCID=6008ab07
DTITLE=The Doors - Alive, She Cried
DYEAR=1983
DGENRE=Rock
TTITLE0=Gloria [live]
TTITLE1=Light My Fire [live]
TTITLE2=You Make Me Real [live]
TTITLE3=Texas Radio and The Big Beat [live]
TTITLE4=Love Me Two Times [live]
TTITLE5=Little Red Rooster [live]
TTITLE6=Moonlight Drive [live]
EXTD=
EXTT0=
EXTT1=
EXTT2=
EXTT3=
EXTT4=
EXTT5=
EXTT6=
PLAYORDER=
